<svg version="1.2" xmlns="http://www.w3.org/2000/svg" viewBox="0 0 688 214" width="688" height="214">
	<title>logo-black-svg</title>
	<style>
		.s0 { fill: #000000 } 
		.s1 { fill: #000000;stroke: #000000;stroke-width: 1.1 } 
		.s2 { opacity: .7;fill: #000000;stroke: #000000;stroke-width: 1.1 } 
		.s3 { opacity: .5;fill: #000000;stroke: #000000;stroke-width: 1.1 } 
	</style>
	<g id="Layer">
		<g id="Layer">
			<g id="tight-bounds">
				<g id="Layer">
					<g id="Layer">
						<g id="Layer">
							<g id="Layer">
								<g id="Layer">
									<g id="textblocktransform">
										<g id="textblock">
											<g id="Layer">
												<g id="Layer">
													<g id="Layer">
														<g id="Layer">
															<path id="text-0" class="s0" d="m116.2 64.1h-37.3v119.4h-41.5v-119.4h-37.4v-33.9h116.2zm63.4-33.9v153.3h-41.6v-153.3zm74.8 102v51.3h-41.6v-153.3h41.6v66.6q3.4-6.8 12.6-19.6l32.3-47h45.2l-48.2 68.7 47.4 84.6h-46.7l-30.3-58.6zm147.3 17.5h49.5v33.7h-91v-153.2h91v33.3h-49.5v24.1h45.9v33.2h-45.9z"/>
														</g>
													</g>
												</g>
											</g>
										</g>
									</g>
								</g>
							</g>
							<g id="Layer">
								<g id="Layer">
									<g id="Layer">
										<path id="Layer" class="s1" d="m487.3 0.9h57.9v211.8h-57.9z"/>
										<path id="Layer" class="s2" d="m557.9 0.9h57.9v211.8h-57.9z"/>
										<path id="Layer" class="s3" d="m628.5 0.9h57.9v211.8h-57.9z"/>
									</g>
								</g>
							</g>
						</g>
					</g>
				</g>
			</g>
		</g>
	</g>
</svg>